# xmcd
#
# Track frame offsets:
#	150
#	14216
#	27419
#	42900
#	54717
#	68612
#	86526
#	103347
#	119505
#	138894
#
# Disc length: 2178 seconds
#
# Revision: 1
# Processed by: cddbd v1.5.2PL0 Copyright (c) Steve Scherf et al.
# Submitted via: audiograbber 1.83.01
#
DISCID=8d08800a
DTITLE=Blue Tattoo - Tattoed Dudes
DYEAR=1996
DGENRE=Blues
TTITLE0=Mexico
TTITLE1=Make Believe
TTITLE2=Lonesome Road
TTITLE3=Blues,Too
TTITLE4=Sherry's Song
TTITLE5=My Wife Story
TTITLE6=Klingong
TTITLE7=Highway Man
TTITLE8=Close Your Eyes
TTITLE9=Hoochie Coochie Man
EXTD=
EXTT0=
EXTT1=
EXTT2=
EXTT3=
EXTT4=
EXTT5=
EXTT6=
EXTT7=
EXTT8=
EXTT9=
PLAYORDER=
